<svg width="26" height="26" viewBox="0 0 26 26" fill="none" xmlns="http://www.w3.org/2000/svg">
<path d="M7.48254 0.397827H17.9825C21.9825 0.397827 25.2325 3.64783 25.2325 7.64783V18.1478C25.2325 20.0706 24.4687 21.9147 23.1091 23.2744C21.7494 24.634 19.9054 25.3978 17.9825 25.3978H7.48254C3.48254 25.3978 0.232544 22.1478 0.232544 18.1478V7.64783C0.232544 5.72501 0.996381 3.88094 2.35602 2.5213C3.71566 1.16166 5.55972 0.397827 7.48254 0.397827ZM7.23254 2.89783C6.03907 2.89783 4.89448 3.37193 4.05056 4.21585C3.20665 5.05976 2.73254 6.20435 2.73254 7.39783V18.3978C2.73254 20.8853 4.74504 22.8978 7.23254 22.8978H18.2325C19.426 22.8978 20.5706 22.4237 21.4145 21.5798C22.2584 20.7359 22.7325 19.5913 22.7325 18.3978V7.39783C22.7325 4.91033 20.72 2.89783 18.2325 2.89783H7.23254ZM19.295 4.77283C19.7094 4.77283 20.1069 4.93745 20.3999 5.23047C20.6929 5.5235 20.8575 5.92093 20.8575 6.33533C20.8575 6.74973 20.6929 7.14716 20.3999 7.44018C20.1069 7.73321 19.7094 7.89783 19.295 7.89783C18.8806 7.89783 18.4832 7.73321 18.1902 7.44018C17.8972 7.14716 17.7325 6.74973 17.7325 6.33533C17.7325 5.92093 17.8972 5.5235 18.1902 5.23047C18.4832 4.93745 18.8806 4.77283 19.295 4.77283ZM12.7325 6.64783C14.3901 6.64783 15.9799 7.30631 17.152 8.47841C18.3241 9.65051 18.9825 11.2402 18.9825 12.8978C18.9825 14.5554 18.3241 16.1451 17.152 17.3172C15.9799 18.4893 14.3901 19.1478 12.7325 19.1478C11.0749 19.1478 9.48523 18.4893 8.31313 17.3172C7.14102 16.1451 6.48254 14.5554 6.48254 12.8978C6.48254 11.2402 7.14102 9.65051 8.31313 8.47841C9.48523 7.30631 11.0749 6.64783 12.7325 6.64783ZM12.7325 9.14783C11.738 9.14783 10.7842 9.54291 10.0809 10.2462C9.37763 10.9494 8.98254 11.9033 8.98254 12.8978C8.98254 13.8924 9.37763 14.8462 10.0809 15.5495C10.7842 16.2527 11.738 16.6478 12.7325 16.6478C13.7271 16.6478 14.6809 16.2527 15.3842 15.5495C16.0875 14.8462 16.4825 13.8924 16.4825 12.8978C16.4825 11.9033 16.0875 10.9494 15.3842 10.2462C14.6809 9.54291 13.7271 9.14783 12.7325 9.14783Z" fill="white"/>
</svg>
