<svg width="25" height="26" viewBox="0 0 25 26" fill="none" xmlns="http://www.w3.org/2000/svg">
<path d="M22.2222 0.397827C22.9589 0.397827 23.6655 0.690485 24.1864 1.21142C24.7073 1.73235 25 2.43889 25 3.1756V22.62C25 23.3568 24.7073 24.0633 24.1864 24.5842C23.6655 25.1052 22.9589 25.3978 22.2222 25.3978H2.77778C2.04107 25.3978 1.33453 25.1052 0.813592 24.5842C0.292658 24.0633 0 23.3568 0 22.62V3.1756C0 2.43889 0.292658 1.73235 0.813592 1.21142C1.33453 0.690485 2.04107 0.397827 2.77778 0.397827H22.2222ZM21.5278 21.9256V14.5645C21.5278 13.3637 21.0507 12.212 20.2016 11.3629C19.3525 10.5137 18.2008 10.0367 17 10.0367C15.8194 10.0367 14.4444 10.7589 13.7778 11.8423V10.3006H9.90278V21.9256H13.7778V15.0784C13.7778 14.0089 14.6389 13.1339 15.7083 13.1339C16.224 13.1339 16.7186 13.3388 17.0833 13.7035C17.4479 14.0681 17.6528 14.5627 17.6528 15.0784V21.9256H21.5278ZM5.38889 8.12005C6.00773 8.12005 6.60122 7.87422 7.03881 7.43663C7.47639 6.99905 7.72222 6.40555 7.72222 5.78672C7.72222 4.49505 6.68056 3.43949 5.38889 3.43949C4.76637 3.43949 4.16934 3.68679 3.72915 4.12698C3.28896 4.56717 3.04167 5.16419 3.04167 5.78672C3.04167 7.07838 4.09722 8.12005 5.38889 8.12005ZM7.31944 21.9256V10.3006H3.47222V21.9256H7.31944Z" fill="white"/>
</svg>
