<svg width="26" height="26" viewBox="0 0 26 26" fill="none" xmlns="http://www.w3.org/2000/svg">
<path d="M25.6978 3.339C24.7776 3.85371 23.7857 4.19194 22.758 4.35371C23.8096 3.5743 24.6222 2.339 25.0046 0.853709C24.0128 1.589 22.9133 2.10371 21.7542 2.39783C20.8101 1.13312 19.4836 0.397827 17.9779 0.397827C15.1696 0.397827 12.8751 3.22136 12.8751 6.70665C12.8751 7.20665 12.9229 7.69195 13.0066 8.14783C8.75225 7.88312 4.96401 5.36841 2.4425 1.55959C2.00034 2.48606 1.74938 3.5743 1.74938 4.72136C1.74938 6.91253 2.64565 8.85371 4.03188 9.95665C3.18341 9.95665 2.39469 9.66253 1.70158 9.22136V9.26547C1.70158 12.3243 3.47022 14.8831 5.81248 15.4566C5.06048 15.7099 4.271 15.7451 3.50607 15.5596C3.83065 16.8132 4.46632 17.9102 5.32373 18.6963C6.18114 19.4823 7.21717 19.918 8.28619 19.9419C6.47408 21.7073 4.22786 22.6615 1.91668 22.6478C1.51037 22.6478 1.10406 22.6184 0.697754 22.5596C2.96831 24.3537 5.66907 25.3978 8.56104 25.3978C17.9779 25.3978 23.1523 15.7802 23.1523 7.44194C23.1523 7.16253 23.1523 6.89783 23.1404 6.61841C24.1442 5.73606 25.0046 4.61842 25.6978 3.339Z" fill="white"/>
</svg>
