<svg width="34" height="27" viewBox="0 0 34 27" fill="none" xmlns="http://www.w3.org/2000/svg">
<path d="M32.3301 4.91333C32.1573 4.14588 31.8055 3.44271 31.31 2.87485C30.8146 2.30699 30.1931 1.89454 29.5084 1.67917C27.0068 1 17 1 17 1C17 1 6.99325 1 4.49156 1.74386C3.80686 1.95923 3.18541 2.37167 2.68998 2.93953C2.19454 3.50739 1.84266 4.21056 1.66989 4.97801C1.21204 7.8007 0.988084 10.6641 1.00083 13.5323C0.984511 16.4221 1.20848 19.3074 1.66989 22.1514C1.86036 22.895 2.22012 23.5714 2.71441 24.1153C3.20869 24.6591 3.82079 25.0521 4.49156 25.2561C6.99325 26 17 26 17 26C17 26 27.0068 26 29.5084 25.2561C30.1931 25.0408 30.8146 24.6283 31.31 24.0605C31.8055 23.4926 32.1573 22.7894 32.3301 22.022C32.7844 19.2206 33.0084 16.3789 32.9992 13.5323C33.0155 10.6426 32.7915 7.75727 32.3301 4.91333Z" stroke="#FFF5F5" stroke-width="2" stroke-linecap="round" stroke-linejoin="round"/>
<path d="M12 20L24 13.5L12 7V20Z" stroke="#FFF5F5" stroke-width="2" stroke-linecap="round" stroke-linejoin="round"/>
</svg>
